<svg width="30" height="29" viewBox="0 0 30 29" fill="none" xmlns="http://www.w3.org/2000/svg">
<path fill-rule="evenodd" clip-rule="evenodd" d="M15.0968 15.0968L27.485 27.485L28.1921 26.7779L15.8039 14.3897L27.485 2.70854L26.7779 2.00143L15.0968 13.6826L3.41421 2L2.70711 2.70711L14.3897 14.3897L2 26.7793L2.70711 27.4864L15.0968 15.0968Z" fill="#DB5A8E"/>
<path d="M27.485 27.485L26.7779 28.1921L27.485 28.8992L28.1921 28.1921L27.485 27.485ZM15.0968 15.0968L15.8039 14.3897L15.0968 13.6826L14.3897 14.3897L15.0968 15.0968ZM28.1921 26.7779L28.8992 27.485L29.6063 26.7779L28.8992 26.0708L28.1921 26.7779ZM15.8039 14.3897L15.0968 13.6826L14.3897 14.3897L15.0968 15.0968L15.8039 14.3897ZM27.485 2.70854L28.1921 3.41564L28.8992 2.70854L28.1921 2.00143L27.485 2.70854ZM26.7779 2.00143L27.485 1.29432L26.7779 0.587215L26.0708 1.29432L26.7779 2.00143ZM15.0968 13.6826L14.3897 14.3897L15.0968 15.0968L15.8039 14.3897L15.0968 13.6826ZM3.41421 2L4.12132 1.29289L3.41421 0.585787L2.70711 1.29289L3.41421 2ZM2.70711 2.70711L2 2L1.29289 2.70711L2 3.41421L2.70711 2.70711ZM14.3897 14.3897L15.0968 15.0968L15.8039 14.3897L15.0968 13.6826L14.3897 14.3897ZM2 26.7793L1.29289 26.0722L0.585787 26.7793L1.29289 27.4864L2 26.7793ZM2.70711 27.4864L2 28.1935L2.70711 28.9007L3.41421 28.1935L2.70711 27.4864ZM28.1921 26.7779L15.8039 14.3897L14.3897 15.8039L26.7779 28.1921L28.1921 26.7779ZM27.485 26.0708L26.7779 26.7779L28.1921 28.1921L28.8992 27.485L27.485 26.0708ZM15.0968 15.0968L27.485 27.485L28.8992 26.0708L16.511 13.6826L15.0968 15.0968ZM26.7779 2.00143L15.0968 13.6826L16.511 15.0968L28.1921 3.41564L26.7779 2.00143ZM26.0708 2.70853L26.7779 3.41564L28.1921 2.00143L27.485 1.29432L26.0708 2.70853ZM15.8039 14.3897L27.485 2.70854L26.0708 1.29432L14.3897 12.9755L15.8039 14.3897ZM2.70711 2.70711L14.3897 14.3897L15.8039 12.9755L4.12132 1.29289L2.70711 2.70711ZM3.41421 3.41421L4.12132 2.70711L2.70711 1.29289L2 2L3.41421 3.41421ZM15.0968 13.6826L3.41421 2L2 3.41421L13.6826 15.0968L15.0968 13.6826ZM2.70711 27.4864L15.0968 15.0968L13.6826 13.6826L1.29289 26.0722L2.70711 27.4864ZM3.41421 26.7793L2.70711 26.0722L1.29289 27.4864L2 28.1935L3.41421 26.7793ZM14.3897 14.3897L2 26.7793L3.41421 28.1935L15.8039 15.8039L14.3897 14.3897Z" fill="#DB5A8E"/>
</svg>
