<svg width="33" height="33" viewBox="0 0 33 33" fill="none" xmlns="http://www.w3.org/2000/svg">
<mask id="path-1-inside-1_535_158" fill="white">
<path fill-rule="evenodd" clip-rule="evenodd" d="M1 16.5C1 7.93959 7.93959 1 16.5 1C25.0604 1 32 7.93959 32 16.5C32 25.0604 25.0604 32 16.5 32C7.93959 32 1 25.0604 1 16.5ZM0 16.5C0 7.3873 7.3873 0 16.5 0C25.6127 0 33 7.3873 33 16.5C33 25.6127 25.6127 33 16.5 33C7.3873 33 0 25.6127 0 16.5ZM13.2383 23.2691L25.1087 16.4158L13.2383 9.56243L13.2383 23.2691Z"/>
</mask>
<path fill-rule="evenodd" clip-rule="evenodd" d="M1 16.5C1 7.93959 7.93959 1 16.5 1C25.0604 1 32 7.93959 32 16.5C32 25.0604 25.0604 32 16.5 32C7.93959 32 1 25.0604 1 16.5ZM0 16.5C0 7.3873 7.3873 0 16.5 0C25.6127 0 33 7.3873 33 16.5C33 25.6127 25.6127 33 16.5 33C7.3873 33 0 25.6127 0 16.5ZM13.2383 23.2691L25.1087 16.4158L13.2383 9.56243L13.2383 23.2691Z" fill="#DB5A8E"/>
<path d="M25.1087 16.4158L25.6087 17.2818L27.1087 16.4158L25.6087 15.5498L25.1087 16.4158ZM13.2383 23.2691H12.2383V25.0012L13.7383 24.1352L13.2383 23.2691ZM13.2383 9.56243L13.7383 8.6964L12.2383 7.83038V9.56243H13.2383ZM16.5 0C7.3873 0 0 7.3873 0 16.5H2C2 8.49187 8.49187 2 16.5 2V0ZM33 16.5C33 7.3873 25.6127 0 16.5 0V2C24.5081 2 31 8.49187 31 16.5H33ZM16.5 33C25.6127 33 33 25.6127 33 16.5H31C31 24.5081 24.5081 31 16.5 31V33ZM0 16.5C0 25.6127 7.3873 33 16.5 33V31C8.49187 31 2 24.5081 2 16.5H0ZM16.5 -1C6.83502 -1 -1 6.83502 -1 16.5H1C1 7.93959 7.93959 1 16.5 1V-1ZM34 16.5C34 6.83502 26.165 -1 16.5 -1V1C25.0604 1 32 7.93959 32 16.5H34ZM16.5 34C26.165 34 34 26.165 34 16.5H32C32 25.0604 25.0604 32 16.5 32V34ZM-1 16.5C-1 26.165 6.83502 34 16.5 34V32C7.93959 32 1 25.0604 1 16.5H-1ZM24.6087 15.5498L12.7383 22.4031L13.7383 24.1352L25.6087 17.2818L24.6087 15.5498ZM12.7383 10.4285L24.6087 17.2818L25.6087 15.5498L13.7383 8.6964L12.7383 10.4285ZM14.2383 23.2691L14.2383 9.56243H12.2383L12.2383 23.2691H14.2383Z" fill="#DB5A8E" mask="url(#path-1-inside-1_535_158)"/>
</svg>
