<svg width="33" height="33" viewBox="0 0 33 33" fill="none" xmlns="http://www.w3.org/2000/svg">
<mask id="path-1-inside-1_535_157" fill="white">
<path fill-rule="evenodd" clip-rule="evenodd" d="M32 16.5C32 25.0604 25.0604 32 16.5 32C7.93959 32 1 25.0604 1 16.5C1 7.93959 7.93959 1 16.5 1C25.0604 1 32 7.93959 32 16.5ZM33 16.5C33 25.6127 25.6127 33 16.5 33C7.3873 33 0 25.6127 0 16.5C0 7.3873 7.3873 0 16.5 0C25.6127 0 33 7.3873 33 16.5ZM19.7615 9.73111L7.89111 16.5845L19.7615 23.4378V9.73111Z"/>
</mask>
<path fill-rule="evenodd" clip-rule="evenodd" d="M32 16.5C32 25.0604 25.0604 32 16.5 32C7.93959 32 1 25.0604 1 16.5C1 7.93959 7.93959 1 16.5 1C25.0604 1 32 7.93959 32 16.5ZM33 16.5C33 25.6127 25.6127 33 16.5 33C7.3873 33 0 25.6127 0 16.5C0 7.3873 7.3873 0 16.5 0C25.6127 0 33 7.3873 33 16.5ZM19.7615 9.73111L7.89111 16.5845L19.7615 23.4378V9.73111Z" fill="#DB5A8E"/>
<path d="M7.89111 16.5845L7.39111 15.7184L5.89111 16.5845L7.39111 17.4505L7.89111 16.5845ZM19.7615 9.73111H20.7615V7.99906L19.2615 8.86508L19.7615 9.73111ZM19.7615 23.4378L19.2615 24.3039L20.7615 25.1699V23.4378H19.7615ZM16.5 33C25.6127 33 33 25.6127 33 16.5H31C31 24.5081 24.5081 31 16.5 31V33ZM0 16.5C0 25.6127 7.3873 33 16.5 33V31C8.49187 31 2 24.5081 2 16.5H0ZM16.5 0C7.3873 0 0 7.3873 0 16.5H2C2 8.49187 8.49187 2 16.5 2V0ZM33 16.5C33 7.3873 25.6127 0 16.5 0V2C24.5081 2 31 8.49187 31 16.5H33ZM16.5 34C26.165 34 34 26.165 34 16.5H32C32 25.0604 25.0604 32 16.5 32V34ZM-1 16.5C-1 26.165 6.83502 34 16.5 34V32C7.93959 32 1 25.0604 1 16.5H-1ZM16.5 -1C6.83502 -1 -1 6.83502 -1 16.5H1C1 7.93959 7.93959 1 16.5 1V-1ZM34 16.5C34 6.83502 26.165 -1 16.5 -1V1C25.0604 1 32 7.93959 32 16.5H34ZM8.39111 17.4505L20.2615 10.5971L19.2615 8.86508L7.39111 15.7184L8.39111 17.4505ZM20.2615 22.5718L8.39111 15.7184L7.39111 17.4505L19.2615 24.3039L20.2615 22.5718ZM18.7615 9.73111V23.4378H20.7615V9.73111H18.7615Z" fill="#DB5A8E" mask="url(#path-1-inside-1_535_157)"/>
</svg>
